<?xml version="1.0" encoding="UTF-8"?>
<!DOCTYPE svg PUBLIC "-//W3C//DTD SVG 1.1//EN" "http://www.w3.org/Graphics/SVG/1.1/DTD/svg11.dtd">
<svg xmlns="http://www.w3.org/2000/svg" version="1.1" width="1024px" height="1024px" style="shape-rendering:geometricPrecision; text-rendering:geometricPrecision; image-rendering:optimizeQuality; fill-rule:evenodd; clip-rule:evenodd" xmlns:xlink="http://www.w3.org/1999/xlink">
<g><path style="opacity:1" fill="#1a4cab" d="M -0.5,-0.5 C 340.833,-0.5 682.167,-0.5 1023.5,-0.5C 1023.5,340.833 1023.5,682.167 1023.5,1023.5C 682.167,1023.5 340.833,1023.5 -0.5,1023.5C -0.5,682.167 -0.5,340.833 -0.5,-0.5 Z"/></g>
<g><path style="opacity:1" fill="#f9f7eb" d="M 578.5,188.5 C 573.5,188.5 568.5,188.5 563.5,188.5C 563.5,207.167 563.5,225.833 563.5,244.5C 558.833,244.5 554.167,244.5 549.5,244.5C 549.5,238.5 549.5,232.5 549.5,226.5C 549.5,213.167 549.5,199.833 549.5,186.5C 524.167,186.5 498.833,186.5 473.5,186.5C 473.5,196.5 473.5,206.5 473.5,216.5C 473.5,225.833 473.5,235.167 473.5,244.5C 468.637,244.819 463.97,244.486 459.5,243.5C 459.5,225.167 459.5,206.833 459.5,188.5C 454.5,188.5 449.5,188.5 444.5,188.5C 444.091,184.736 444.091,181.07 444.5,177.5C 455.567,171.309 466.234,164.642 476.5,157.5C 485.701,152.478 494.534,146.811 503,140.5C 503.499,134.843 503.666,129.176 503.5,123.5C 506.139,121.844 508.805,120.178 511.5,118.5C 513.833,120 516.167,121.5 518.5,123C 519.148,129.112 519.815,135.279 520.5,141.5C 539.333,154.086 558.666,165.92 578.5,177C 578.642,180.621 578.642,184.455 578.5,188.5 Z"/></g>
<g><path style="opacity:1" fill="#2035a4" d="M 503.5,123.5 C 503.666,129.176 503.499,134.843 503,140.5C 494.534,146.811 485.701,152.478 476.5,157.5C 484.539,151.753 493.039,145.753 502,139.5C 502.173,133.984 502.673,128.651 503.5,123.5 Z"/></g>
<g><path style="opacity:1" fill="#f8f5eb" d="M 271.5,146.5 C 277.067,146.52 282.4,147.687 287.5,150C 325.771,164.485 364.104,178.818 402.5,193C 406.489,197.045 406.489,201.045 402.5,205C 400.5,205.667 398.5,205.667 396.5,205C 355.618,189.728 314.618,174.728 273.5,160C 267.724,156.285 267.058,151.785 271.5,146.5 Z"/></g>
<g><path style="opacity:1" fill="#f8f6eb" d="M 745.5,146.5 C 753.692,147.471 755.692,151.638 751.5,159C 710.167,174.333 668.833,189.667 627.5,205C 619.333,206.833 616.167,203.667 618,195.5C 619.579,193.959 621.413,192.792 623.5,192C 664.315,176.899 704.982,161.733 745.5,146.5 Z"/></g>
<g><path style="opacity:1" fill="#0738a5" d="M 549.5,226.5 C 548.505,214.011 548.171,201.344 548.5,188.5C 523.833,188.5 499.167,188.5 474.5,188.5C 474.827,198.015 474.494,207.348 473.5,216.5C 473.5,206.5 473.5,196.5 473.5,186.5C 498.833,186.5 524.167,186.5 549.5,186.5C 549.5,199.833 549.5,213.167 549.5,226.5 Z"/></g>
<g><path style="opacity:1" fill="#00209d" d="M 444.5,188.5 C 449.5,188.5 454.5,188.5 459.5,188.5C 459.5,206.833 459.5,225.167 459.5,243.5C 458.503,225.674 458.17,207.674 458.5,189.5C 453.063,189.834 448.396,189.501 444.5,188.5 Z"/></g>
<g><path style="opacity:1" fill="#fbf9ed" d="M 523.5,208.5 C 523.5,220.5 523.5,232.5 523.5,244.5C 515.5,244.5 507.5,244.5 499.5,244.5C 499.5,232.5 499.5,220.5 499.5,208.5C 507.5,208.5 515.5,208.5 523.5,208.5 Z"/></g>
<g><path style="opacity:1" fill="#01249c" d="M 578.5,188.5 C 574.03,189.486 569.363,189.819 564.5,189.5C 564.5,208.167 564.5,226.833 564.5,245.5C 558.833,245.5 553.167,245.5 547.5,245.5C 547.334,241.154 547.501,236.821 548,232.5C 548.176,236.688 548.676,240.688 549.5,244.5C 554.167,244.5 558.833,244.5 563.5,244.5C 563.5,225.833 563.5,207.167 563.5,188.5C 568.5,188.5 573.5,188.5 578.5,188.5 Z"/></g>
<g><path style="opacity:1" fill="#001899" d="M 523.5,208.5 C 515.5,208.5 507.5,208.5 499.5,208.5C 499.5,220.5 499.5,232.5 499.5,244.5C 507.5,244.5 515.5,244.5 523.5,244.5C 515.35,245.493 507.017,245.826 498.5,245.5C 498.5,232.833 498.5,220.167 498.5,207.5C 507.017,207.174 515.35,207.507 523.5,208.5 Z"/></g>
<g><path style="opacity:1" fill="#f8f6eb" d="M 619.5,236.5 C 622.187,236.336 624.854,236.503 627.5,237C 668.489,251.997 709.489,266.997 750.5,282C 751.667,282.5 752.5,283.333 753,284.5C 753.667,287.167 753.667,289.833 753,292.5C 751.701,293.98 750.034,294.646 748,294.5C 706.388,280.117 664.888,265.283 623.5,250C 617.147,247.077 615.813,242.577 619.5,236.5 Z"/></g>
<g><path style="opacity:1" fill="#f6f4ea" d="M 585.5,257.5 C 585.5,265.833 585.5,274.167 585.5,282.5C 536.167,282.5 486.833,282.5 437.5,282.5C 437.5,274.167 437.5,265.833 437.5,257.5C 486.833,257.5 536.167,257.5 585.5,257.5 Z"/></g>
<g><path style="opacity:1" fill="#f7f5ec" d="M 395.5,235.5 C 405.309,235.138 407.976,239.305 403.5,248C 361.756,263.137 320.09,278.47 278.5,294C 271.22,295.719 268.053,292.885 269,285.5C 270.731,283.383 272.898,281.883 275.5,281C 315.794,266.296 355.794,251.129 395.5,235.5 Z"/></g>
<g><path style="opacity:1" fill="#1b36a3" d="M 585.5,257.5 C 536.167,257.5 486.833,257.5 437.5,257.5C 437.5,265.833 437.5,274.167 437.5,282.5C 486.833,282.5 536.167,282.5 585.5,282.5C 586.329,274.677 586.829,266.677 587,258.5C 587.816,267.079 587.649,275.579 586.5,284C 536.497,284.833 486.497,284.667 436.5,283.5C 435.178,274.637 435.178,265.803 436.5,257C 486.904,256.17 536.571,256.336 585.5,257.5 Z"/></g>
<g><path style="opacity:1" fill="#f9f7ea" d="M 544.5,522.5 C 509.004,521.502 473.337,521.168 437.5,521.5C 437.5,519.833 437.5,518.167 437.5,516.5C 438.167,508.833 438.833,501.167 439.5,493.5C 440.647,480.844 441.647,468.178 442.5,455.5C 447.951,403.356 452.951,351.022 457.5,298.5C 493.494,297.711 529.494,297.378 565.5,297.5C 572.234,372.504 578.9,447.504 585.5,522.5C 571.833,522.5 558.167,522.5 544.5,522.5 Z"/></g>
<g><path style="opacity:1" fill="#092a9f" d="M 442.5,455.5 C 441.647,468.178 440.647,480.844 439.5,493.5C 438.84,492.036 438.507,490.369 438.5,488.5C 439.489,475.442 440.822,464.442 442.5,455.5 Z"/></g>
<g><path style="opacity:1" fill="#d3ccd7" d="M 437.5,516.5 C 437.5,518.167 437.5,519.833 437.5,521.5C 473.337,521.168 509.004,521.502 544.5,522.5C 508.5,522.5 472.5,522.5 436.5,522.5C 436.205,520.265 436.539,518.265 437.5,516.5 Z"/></g>
<g><path style="opacity:1" fill="#f7f5eb" d="M 707.5,564.5 C 722.273,564.742 727.439,571.742 723,585.5C 714.622,593.778 706.622,593.445 699,584.5C 695.751,575.045 698.584,568.379 707.5,564.5 Z"/></g>
<g><path style="opacity:1" fill="#f9f6eb" d="M 218.5,682.5 C 215.193,683.051 211.86,683.384 208.5,683.5C 191.5,683.5 174.5,683.5 157.5,683.5C 157.5,644.833 157.5,606.167 157.5,567.5C 176.541,567.079 195.541,567.579 214.5,569C 234.651,574.113 242.484,586.946 238,607.5C 235.223,613.943 230.723,618.777 224.5,622C 240.348,631.448 245.848,645.282 241,663.5C 236.335,673.343 228.835,679.676 218.5,682.5 Z"/></g>
<g><path style="opacity:1" fill="#0027a0" d="M 747.5,579.5 C 747.5,586.5 747.5,593.5 747.5,600.5C 742.833,600.5 738.167,600.5 733.5,600.5C 737.634,599.515 741.968,599.182 746.5,599.5C 746.176,592.646 746.509,585.979 747.5,579.5 Z"/></g>
<g><path style="opacity:1" fill="#f8f5eb" d="M 265.5,564.5 C 280.608,565.048 285.442,572.382 280,586.5C 273.511,592.286 266.678,592.786 259.5,588C 252.681,577.749 254.681,569.916 265.5,564.5 Z"/></g>
<g><path style="opacity:1" fill="#1a4bab" d="M 203.5,587.5 C 214.133,588.971 218.3,594.971 216,605.5C 215.31,608.196 213.81,610.363 211.5,612C 207.655,613.735 203.655,614.901 199.5,615.5C 199.631,614.761 199.464,614.094 199,613.5C 193.259,614.475 187.425,614.808 181.5,614.5C 181.5,605.833 181.5,597.167 181.5,588.5C 189.019,588.825 196.352,588.492 203.5,587.5 Z"/></g>
<g><path style="opacity:1" fill="#00289f" d="M 304.5,579.5 C 304.5,586.5 304.5,593.5 304.5,600.5C 299.833,600.5 295.167,600.5 290.5,600.5C 294.634,599.515 298.968,599.182 303.5,599.5C 303.176,592.646 303.509,585.979 304.5,579.5 Z"/></g>
<g><path style="opacity:1" fill="#869cc7" d="M 747.5,579.5 C 747.833,579.5 748.167,579.5 748.5,579.5C 748.5,586.833 748.5,594.167 748.5,601.5C 743.5,601.5 738.5,601.5 733.5,601.5C 733.5,601.167 733.5,600.833 733.5,600.5C 738.167,600.5 742.833,600.5 747.5,600.5C 747.5,593.5 747.5,586.5 747.5,579.5 Z"/></g>
<g><path style="opacity:1" fill="#faf7ec" d="M 748.5,579.5 C 755.5,579.5 762.5,579.5 769.5,579.5C 769.5,586.5 769.5,593.5 769.5,600.5C 775.979,601.491 782.646,601.824 789.5,601.5C 789.5,607.5 789.5,613.5 789.5,619.5C 782.833,619.5 776.167,619.5 769.5,619.5C 769.333,632.504 769.5,645.504 770,658.5C 770.739,661.573 772.572,663.74 775.5,665C 780.087,665.799 784.587,665.632 789,664.5C 789.651,670.827 790.151,677.16 790.5,683.5C 784.497,684.072 778.497,684.738 772.5,685.5C 767.443,685.404 762.776,684.07 758.5,681.5C 752.659,677.322 749.325,671.655 748.5,664.5C 748.5,649.5 748.5,634.5 748.5,619.5C 743.5,619.5 738.5,619.5 733.5,619.5C 733.5,613.5 733.5,607.5 733.5,601.5C 738.5,601.5 743.5,601.5 748.5,601.5C 748.5,594.167 748.5,586.833 748.5,579.5 Z"/></g>
<g><path style="opacity:1" fill="#627ebe" d="M 304.5,579.5 C 304.833,579.5 305.167,579.5 305.5,579.5C 305.5,586.833 305.5,594.167 305.5,601.5C 300.5,601.5 295.5,601.5 290.5,601.5C 290.5,601.167 290.5,600.833 290.5,600.5C 295.167,600.5 299.833,600.5 304.5,600.5C 304.5,593.5 304.5,586.5 304.5,579.5 Z"/></g>
<g><path style="opacity:1" fill="#00219c" d="M 326.5,579.5 C 327.491,585.979 327.824,592.646 327.5,599.5C 333.842,599.334 340.175,599.5 346.5,600C 339.842,600.5 333.175,600.666 326.5,600.5C 326.5,593.5 326.5,586.5 326.5,579.5 Z"/></g>
<g><path style="opacity:1" fill="#01219a" d="M 769.5,579.5 C 770.491,585.979 770.824,592.646 770.5,599.5C 776.842,599.334 783.175,599.5 789.5,600C 782.842,600.5 776.175,600.666 769.5,600.5C 769.5,593.5 769.5,586.5 769.5,579.5 Z"/></g>
<g><path style="opacity:1" fill="#6c89bf" d="M 860.5,601.5 C 867.677,600.181 875.01,600.181 882.5,601.5C 882.376,602.107 882.043,602.44 881.5,602.5C 874.687,601.509 867.687,601.175 860.5,601.5 Z"/></g>
<g><path style="opacity:1" fill="#0531a1" d="M 203.5,587.5 C 196.352,588.492 189.019,588.825 181.5,588.5C 181.5,597.167 181.5,605.833 181.5,614.5C 187.425,614.808 193.259,614.475 199,613.5C 199.464,614.094 199.631,614.761 199.5,615.5C 192.833,615.5 186.167,615.5 179.5,615.5C 179.5,606.167 179.5,596.833 179.5,587.5C 187.5,587.5 195.5,587.5 203.5,587.5 Z"/></g>
<g><path style="opacity:1" fill="#faf7ec" d="M 459.5,716.5 C 452.833,716.5 446.167,716.5 439.5,716.5C 439.5,678.167 439.5,639.833 439.5,601.5C 446.167,601.5 452.833,601.5 459.5,601.5C 459.335,604.518 459.502,607.518 460,610.5C 468.532,601.402 479.032,597.902 491.5,600C 513.457,605.301 524.123,619.301 523.5,642C 522.616,672.595 506.949,686.928 476.5,685C 470.046,683.522 464.546,680.355 460,675.5C 459.5,689.163 459.333,702.829 459.5,716.5 Z"/></g>
<g><path style="opacity:1" fill="#f6f4ea" d="M 683.5,600.5 C 683.825,608.019 683.492,615.352 682.5,622.5C 678.833,622.5 675.167,622.5 671.5,622.5C 662.001,623.832 656.168,629.165 654,638.5C 653.5,653.496 653.333,668.496 653.5,683.5C 646.167,683.5 638.833,683.5 631.5,683.5C 631.169,655.995 631.502,628.662 632.5,601.5C 639.167,601.5 645.833,601.5 652.5,601.5C 652.173,606.214 652.507,610.88 653.5,615.5C 654.298,615.043 654.631,614.376 654.5,613.5C 661.22,602.979 670.887,598.646 683.5,600.5 Z"/></g>
<g><path style="opacity:1" fill="#faf8ec" d="M 700.5,601.5 C 707.833,601.5 715.167,601.5 722.5,601.5C 722.5,628.833 722.5,656.167 722.5,683.5C 715.167,683.5 707.833,683.5 700.5,683.5C 700.5,656.167 700.5,628.833 700.5,601.5 Z"/></g>
<g><path style="opacity:1" fill="#faf7eb" d="M 305.5,579.5 C 312.5,579.5 319.5,579.5 326.5,579.5C 326.5,586.5 326.5,593.5 326.5,600.5C 332.979,601.491 339.646,601.824 346.5,601.5C 346.5,607.5 346.5,613.5 346.5,619.5C 339.646,619.176 332.979,619.509 326.5,620.5C 326.073,634.226 326.573,647.893 328,661.5C 329.167,662.667 330.333,663.833 331.5,665C 335.821,665.499 340.154,665.666 344.5,665.5C 346.453,671.074 347.12,677.074 346.5,683.5C 341.014,684.219 335.514,684.886 330,685.5C 326.331,685.519 322.831,684.852 319.5,683.5C 310.892,679.626 306.226,672.959 305.5,663.5C 305.5,648.833 305.5,634.167 305.5,619.5C 300.5,619.5 295.5,619.5 290.5,619.5C 290.5,613.833 290.5,608.167 290.5,602.5C 290.5,602.167 290.5,601.833 290.5,601.5C 295.5,601.5 300.5,601.5 305.5,601.5C 305.5,594.167 305.5,586.833 305.5,579.5 Z"/></g>
<g><path style="opacity:1" fill="#0233a2" d="M 257.5,683.5 C 264.655,684.329 271.989,684.829 279.5,685C 271.587,685.814 263.754,685.647 256,684.5C 255.333,656.5 255.333,628.5 256,600.5C 256.168,628.336 256.668,656.003 257.5,683.5 Z"/></g>
<g><path style="opacity:1" fill="#9cadcd" d="M 683.5,600.5 C 683.833,600.5 684.167,600.5 684.5,600.5C 684.831,608.196 684.497,615.862 683.5,623.5C 682.893,623.376 682.56,623.043 682.5,622.5C 683.492,615.352 683.825,608.019 683.5,600.5 Z"/></g>
<g><path style="opacity:1" fill="#002a9e" d="M 700.5,601.5 C 699.668,628.997 699.168,656.664 699,684.5C 698.333,656.5 698.333,628.5 699,600.5C 707.088,599.352 715.254,599.185 723.5,600C 715.656,600.171 707.989,600.671 700.5,601.5 Z"/></g>
<g><path style="opacity:1" fill="#9fadcf" d="M 632.5,601.5 C 639.313,600.509 646.313,600.175 653.5,600.5C 653.182,605.032 653.515,609.366 654.5,613.5C 654.631,614.376 654.298,615.043 653.5,615.5C 652.507,610.88 652.173,606.214 652.5,601.5C 645.833,601.5 639.167,601.5 632.5,601.5 Z"/></g>
<g><path style="opacity:1" fill="#1b4aab" d="M 474.5,619.5 C 494.731,618.566 503.897,628.232 502,648.5C 498.586,661.631 490.086,667.464 476.5,666C 462.949,661.421 457.116,651.921 459,637.5C 460.848,628.495 466.015,622.495 474.5,619.5 Z"/></g>
<g><path style="opacity:1" fill="#082a9f" d="M 748.5,664.5 C 749.325,671.655 752.659,677.322 758.5,681.5C 758.103,682.525 757.437,682.692 756.5,682C 751.14,677.781 747.973,672.281 747,665.5C 746.5,650.837 746.333,636.17 746.5,621.5C 742.486,621.666 738.486,621.499 734.5,621C 738.821,620.501 743.154,620.334 747.5,620.5C 747.171,635.343 747.504,650.01 748.5,664.5 Z"/></g>
<g><path style="opacity:1" fill="#08299f" d="M 684.5,600.5 C 685.492,608.316 685.826,616.316 685.5,624.5C 680.647,624.187 675.98,623.521 671.5,622.5C 675.167,622.5 678.833,622.5 682.5,622.5C 682.56,623.043 682.893,623.376 683.5,623.5C 684.497,615.862 684.831,608.196 684.5,600.5 Z"/></g>
<g><path style="opacity:1" fill="#f8f6eb" d="M 860.5,601.5 C 867.687,601.175 874.687,601.509 881.5,602.5C 866.546,640.739 851.879,679.072 837.5,717.5C 829.804,717.831 822.138,717.497 814.5,716.5C 819.564,704.97 824.231,693.303 828.5,681.5C 818.662,654.82 808.328,628.32 797.5,602C 805.413,601.186 813.246,601.353 821,602.5C 827.137,619.91 833.47,637.243 840,654.5C 847.149,636.874 853.983,619.208 860.5,601.5 Z"/></g>
<g><path style="opacity:1" fill="#f9f6eb" d="M 380.5,599.5 C 391.736,598.284 402.403,600.117 412.5,605C 418.336,609.512 422.002,615.345 423.5,622.5C 416.961,624.158 410.295,625.158 403.5,625.5C 402.053,618.592 397.719,615.259 390.5,615.5C 383.446,615.39 379.946,618.724 380,625.5C 381.251,628.381 383.417,630.214 386.5,631C 396.134,632.907 405.467,635.741 414.5,639.5C 425.963,648.985 428.13,660.318 421,673.5C 415.468,680.35 408.301,684.183 399.5,685C 389.399,686.507 379.732,685.174 370.5,681C 363.099,676.101 358.766,669.268 357.5,660.5C 363.822,659.723 370.155,659.556 376.5,660C 381.395,668.968 388.729,671.635 398.5,668C 403.143,665.928 404.643,662.428 403,657.5C 402.167,656 401,654.833 399.5,654C 391.132,652.127 382.799,650.127 374.5,648C 358.198,640.096 354.031,627.929 362,611.5C 367.067,605.565 373.233,601.565 380.5,599.5 Z"/></g>
<g><path style="opacity:1" fill="#93a8cd" d="M 439.5,601.5 C 439.5,639.833 439.5,678.167 439.5,716.5C 446.167,716.5 452.833,716.5 459.5,716.5C 452.687,717.491 445.687,717.825 438.5,717.5C 438.168,678.663 438.501,639.996 439.5,601.5 Z"/></g>
<g><path style="opacity:1" fill="#1b4bab" d="M 206.5,633.5 C 220.076,638.167 223.076,646.667 215.5,659C 211.526,661.602 207.193,663.102 202.5,663.5C 195.687,662.509 188.687,662.175 181.5,662.5C 181.5,653.167 181.5,643.833 181.5,634.5C 190.017,634.826 198.35,634.493 206.5,633.5 Z"/></g>
<g><path style="opacity:1" fill="#f9f6eb" d="M 616.5,647.5 C 596.167,647.5 575.833,647.5 555.5,647.5C 555.263,648.791 555.596,649.791 556.5,650.5C 556.5,650.833 556.5,651.167 556.5,651.5C 562.675,668.408 574.008,672.908 590.5,665C 591.782,662.046 593.948,660.213 597,659.5C 602.557,660.269 608.057,661.269 613.5,662.5C 608.573,675.24 599.24,682.74 585.5,685C 557.728,688.528 541.228,676.695 536,649.5C 532.107,624.089 542.273,607.589 566.5,600C 600.507,597.506 617.174,613.339 616.5,647.5 Z"/></g>
<g><path style="opacity:1" fill="#011699" d="M 558.5,629.5 C 570.249,631.447 582.249,632.114 594.5,631.5C 582.34,632.66 570.007,632.827 557.5,632C 558.252,631.329 558.586,630.496 558.5,629.5 Z"/></g>
<g><path style="opacity:1" fill="#1b4aab" d="M 594.5,631.5 C 582.249,632.114 570.249,631.447 558.5,629.5C 562.621,618.271 570.621,614.105 582.5,617C 589.206,619.572 593.206,624.405 594.5,631.5 Z"/></g>
<g><path style="opacity:1" fill="#faf7ec" d="M 257.5,683.5 C 257.5,656.167 257.5,628.833 257.5,601.5C 265.167,601.5 272.833,601.5 280.5,601.5C 280.5,628.833 280.5,656.167 280.5,683.5C 272.833,683.5 265.167,683.5 257.5,683.5 Z"/></g>
<g><path style="opacity:1" fill="#6885bf" d="M 616.5,647.5 C 616.5,647.833 616.5,648.167 616.5,648.5C 596.139,647.845 576.139,648.512 556.5,650.5C 555.596,649.791 555.263,648.791 555.5,647.5C 575.833,647.5 596.167,647.5 616.5,647.5 Z"/></g>
<g><path style="opacity:1" fill="#0023a0" d="M 616.5,648.5 C 596.441,648.858 576.441,649.858 556.5,651.5C 556.5,651.167 556.5,650.833 556.5,650.5C 576.139,648.512 596.139,647.845 616.5,648.5 Z"/></g>
<g><path style="opacity:1" fill="#5f7ebe" d="M 290.5,619.5 C 295.5,619.5 300.5,619.5 305.5,619.5C 305.5,634.167 305.5,648.833 305.5,663.5C 304.504,649.343 304.171,635.01 304.5,620.5C 299.637,620.819 294.97,620.486 290.5,619.5 Z"/></g>
<g><path style="opacity:1" fill="#0531a2" d="M 206.5,633.5 C 198.35,634.493 190.017,634.826 181.5,634.5C 181.5,643.833 181.5,653.167 181.5,662.5C 188.687,662.175 195.687,662.509 202.5,663.5C 194.833,663.5 187.167,663.5 179.5,663.5C 179.5,653.5 179.5,643.5 179.5,633.5C 188.5,633.5 197.5,633.5 206.5,633.5 Z"/></g>
<g><path style="opacity:1" fill="#0c2ca1" d="M 290.5,602.5 C 290.5,608.167 290.5,613.833 290.5,619.5C 294.97,620.486 299.637,620.819 304.5,620.5C 304.171,635.01 304.504,649.343 305.5,663.5C 306.226,672.959 310.892,679.626 319.5,683.5C 319.265,684.097 318.765,684.43 318,684.5C 312.346,681.513 308.013,677.179 305,671.5C 303.592,654.876 303.092,638.209 303.5,621.5C 298.833,621.5 294.167,621.5 289.5,621.5C 289.177,614.978 289.51,608.645 290.5,602.5 Z"/></g>
<g><path style="opacity:1" fill="#152b9e" d="M 326.5,620.5 C 332.509,620.334 338.509,620.501 344.5,621C 338.843,621.499 333.176,621.666 327.5,621.5C 327.078,634.561 327.578,647.561 329,660.5C 330.214,662.049 331.714,663.215 333.5,664C 337.866,664.363 342.199,664.363 346.5,664C 345.584,664.278 344.918,664.778 344.5,665.5C 340.154,665.666 335.821,665.499 331.5,665C 330.333,663.833 329.167,662.667 328,661.5C 326.573,647.893 326.073,634.226 326.5,620.5 Z"/></g>
<g><path style="opacity:1" fill="#042b9f" d="M 218.5,682.5 C 216.769,684.057 214.103,684.89 210.5,685C 192.5,685.667 174.5,685.667 156.5,685C 174.005,684.832 191.338,684.332 208.5,683.5C 211.86,683.384 215.193,683.051 218.5,682.5 Z"/></g>
<g><path style="opacity:1" fill="#f9f7eb" d="M 292.5,724.5 C 313.367,731.229 320.867,745.229 315,766.5C 311.786,771.382 307.619,775.215 302.5,778C 320.849,790.386 325.016,806.552 315,826.5C 308.454,834.184 300.288,838.851 290.5,840.5C 271.833,840.5 253.167,840.5 234.5,840.5C 234.5,801.833 234.5,763.167 234.5,724.5C 253.833,724.5 273.167,724.5 292.5,724.5 Z"/></g>
<g><path style="opacity:1" fill="#1a4bab" d="M 277.5,743.5 C 292.808,744.78 297.308,752.447 291,766.5C 290.329,767.252 289.496,767.586 288.5,767.5C 283.444,768.898 278.277,769.898 273,770.5C 268.219,769.581 263.385,769.248 258.5,769.5C 258.5,761.167 258.5,752.833 258.5,744.5C 265.022,744.823 271.355,744.49 277.5,743.5 Z"/></g>
<g><path style="opacity:1" fill="#07289e" d="M 757.5,755.5 C 748.377,754.531 740.044,756.531 732.5,761.5C 732.062,761.565 731.728,761.399 731.5,761C 739.986,754.927 748.653,753.094 757.5,755.5 Z"/></g>
<g><path style="opacity:1" fill="#f7f5eb" d="M 757.5,755.5 C 771.021,758.357 778.688,766.691 780.5,780.5C 780.5,800.167 780.5,819.833 780.5,839.5C 773.833,839.5 767.167,839.5 760.5,839.5C 760.931,821.453 760.431,803.453 759,785.5C 755.218,777.86 749.051,774.86 740.5,776.5C 739.209,776.263 738.209,776.596 737.5,777.5C 732.575,779.257 729.075,782.59 727,787.5C 726.5,805.164 726.333,822.83 726.5,840.5C 719.5,840.5 712.5,840.5 705.5,840.5C 705.5,812.833 705.5,785.167 705.5,757.5C 712.5,757.5 719.5,757.5 726.5,757.5C 726.335,760.85 726.502,764.183 727,767.5C 728.36,764.977 730.193,762.977 732.5,761.5C 740.044,756.531 748.377,754.531 757.5,755.5 Z"/></g>
<g><path style="opacity:1" fill="#243fa8" d="M 277.5,743.5 C 271.355,744.49 265.022,744.823 258.5,744.5C 258.5,752.833 258.5,761.167 258.5,769.5C 263.385,769.248 268.219,769.581 273,770.5C 278.277,769.898 283.444,768.898 288.5,767.5C 287.942,768.79 286.942,769.623 285.5,770C 275.879,771.286 266.212,771.786 256.5,771.5C 256.5,762.167 256.5,752.833 256.5,743.5C 263.5,743.5 270.5,743.5 277.5,743.5 Z"/></g>
<g><path style="opacity:1" fill="#f8f6eb" d="M 643.5,755.5 C 677.746,756.582 693.579,774.249 691,808.5C 686.966,827.866 675.133,839.032 655.5,842C 617.37,842.312 601.204,823.479 607,785.5C 613.087,767.897 625.254,757.897 643.5,755.5 Z"/></g>
<g><path style="opacity:1" fill="#1b4aaa" d="M 642.5,775.5 C 665.609,775.461 674.443,786.794 669,809.5C 660.907,823.106 649.74,826.272 635.5,819C 626.315,809.98 624.148,799.48 629,787.5C 631.85,781.514 636.35,777.514 642.5,775.5 Z"/></g>
<g><path style="opacity:1" fill="#1a4bab" d="M 281.5,789.5 C 293.282,790.384 298.448,796.717 297,808.5C 295.884,811.756 294.051,814.422 291.5,816.5C 291.44,815.957 291.107,815.624 290.5,815.5C 288.333,816.792 286,817.625 283.5,818C 275.173,818.5 266.84,818.666 258.5,818.5C 258.5,809.167 258.5,799.833 258.5,790.5C 266.352,790.825 274.018,790.492 281.5,789.5 Z"/></g>
<g><path style="opacity:1" fill="#d1d6e0" d="M 780.5,780.5 C 781.497,800.326 781.83,820.326 781.5,840.5C 774.313,840.825 767.313,840.491 760.5,839.5C 767.167,839.5 773.833,839.5 780.5,839.5C 780.5,819.833 780.5,800.167 780.5,780.5 Z"/></g>
<g><path style="opacity:1" fill="#f9f6eb" d="M 365.5,755.5 C 399.038,754.704 415.038,771.038 413.5,804.5C 393.489,804.167 373.489,804.5 353.5,805.5C 358.065,822.614 368.732,828.448 385.5,823C 388.667,820.778 391.5,818.278 394,815.5C 399.879,816.674 405.712,818.007 411.5,819.5C 403.927,835.298 391.261,842.964 373.5,842.5C 352.309,841.145 339.143,830.145 334,809.5C 328.92,781.95 339.42,763.95 365.5,755.5 Z"/></g>
<g><path style="opacity:1" fill="#1947aa" d="M 369.5,772.5 C 378.257,771.355 385.09,774.355 390,781.5C 391.079,784.063 391.579,786.729 391.5,789.5C 379.5,789.5 367.5,789.5 355.5,789.5C 356.574,780.769 361.24,775.102 369.5,772.5 Z"/></g>
<g><path style="opacity:1" fill="#203fa7" d="M 292.5,724.5 C 273.167,724.5 253.833,724.5 234.5,724.5C 234.5,763.167 234.5,801.833 234.5,840.5C 253.167,840.5 271.833,840.5 290.5,840.5C 271.431,841.831 252.264,841.831 233,840.5C 232.333,801.5 232.333,762.5 233,723.5C 251.093,722.341 269.26,722.175 287.5,723C 289.382,723.198 291.048,723.698 292.5,724.5 Z"/></g>
<g><path style="opacity:1" fill="#2237a4" d="M 522.5,772.5 C 513.908,789.131 513.241,806.131 520.5,823.5C 518.254,821.351 516.754,818.684 516,815.5C 511.218,799.808 513.218,785.142 522,771.5C 522.399,771.728 522.565,772.062 522.5,772.5 Z"/></g>
<g><path style="opacity:1" fill="#f9f6eb" d="M 500.5,779.5 C 500.5,799.833 500.5,820.167 500.5,840.5C 493.833,840.5 487.167,840.5 480.5,840.5C 480.5,839.5 480.5,838.5 480.5,837.5C 480.662,835.473 480.495,833.473 480,831.5C 468.871,842.413 455.704,845.58 440.5,841C 426.308,833.088 422.475,821.588 429,806.5C 434.4,798.438 441.9,793.605 451.5,792C 460.838,790.796 470.172,789.629 479.5,788.5C 480.854,780.709 477.854,775.543 470.5,773C 462.006,771.251 455.339,773.918 450.5,781C 443.804,781.116 437.138,780.616 430.5,779.5C 433.05,769.109 439.384,761.943 449.5,758C 463.942,753.687 477.608,755.353 490.5,763C 495.272,767.726 498.606,773.226 500.5,779.5 Z"/></g>
<g><path style="opacity:1" fill="#1d49aa" d="M 478.5,802.5 C 481.772,816.473 475.939,824.473 461,826.5C 451.759,826.255 448.092,821.589 450,812.5C 450.785,810.714 451.951,809.214 453.5,808C 461.754,805.271 470.087,803.437 478.5,802.5 Z"/></g>
<g><path style="opacity:1" fill="#283da7" d="M 281.5,789.5 C 274.018,790.492 266.352,790.825 258.5,790.5C 258.5,799.833 258.5,809.167 258.5,818.5C 266.84,818.666 275.173,818.5 283.5,818C 286,817.625 288.333,816.792 290.5,815.5C 291.107,815.624 291.44,815.957 291.5,816.5C 288.312,817.967 284.979,819.134 281.5,820C 273.173,820.5 264.84,820.666 256.5,820.5C 256.5,810.167 256.5,799.833 256.5,789.5C 264.833,789.5 273.167,789.5 281.5,789.5 Z"/></g>
<g><path style="opacity:1" fill="#f8f6eb" d="M 520.5,823.5 C 513.241,806.131 513.908,789.131 522.5,772.5C 537.759,755.605 556.092,751.438 577.5,760C 585.866,764.697 591.699,771.531 595,780.5C 595.781,781.944 595.614,783.277 594.5,784.5C 588.258,786.311 581.925,787.644 575.5,788.5C 567.539,773.561 556.705,770.894 543,780.5C 537.369,789.855 536.036,799.855 539,810.5C 544.96,823.267 554.46,826.767 567.5,821C 571.091,817.916 574.091,814.416 576.5,810.5C 583.238,811.914 589.904,813.581 596.5,815.5C 591.43,831.069 580.763,839.902 564.5,842C 546.154,844.32 531.487,838.154 520.5,823.5 Z"/></g>
<g><path style="opacity:1" fill="#0938a5" d="M 480.5,837.5 C 480.5,838.5 480.5,839.5 480.5,840.5C 487.167,840.5 493.833,840.5 500.5,840.5C 500.5,820.167 500.5,799.833 500.5,779.5C 501.421,779.93 501.921,781.264 502,783.5C 502.5,802.83 502.667,822.164 502.5,841.5C 494.833,841.5 487.167,841.5 479.5,841.5C 479.232,839.901 479.566,838.568 480.5,837.5 Z"/></g>
<g><path style="opacity:1" fill="#0b229d" d="M 740.5,776.5 C 749.051,774.86 755.218,777.86 759,785.5C 760.431,803.453 760.931,821.453 760.5,839.5C 767.313,840.491 774.313,840.825 781.5,840.5C 774.352,841.492 767.019,841.825 759.5,841.5C 759.946,823.444 759.446,805.444 758,787.5C 756.877,784.751 755.377,782.251 753.5,780C 749.191,778.27 744.858,777.103 740.5,776.5 Z"/></g>
<g><path style="opacity:1" fill="#0b37a4" d="M 737.5,777.5 C 738.239,777.369 738.906,777.536 739.5,778C 734.792,779.378 731.292,782.212 729,786.5C 728.667,804.5 728.333,822.5 728,840.5C 720.402,841.827 712.902,841.827 705.5,840.5C 712.5,840.5 719.5,840.5 726.5,840.5C 726.333,822.83 726.5,805.164 727,787.5C 729.075,782.59 732.575,779.257 737.5,777.5 Z"/></g>
</svg>
