<?xml version="1.0" standalone="no"?>
<!DOCTYPE svg PUBLIC "-//W3C//DTD SVG 20010904//EN"
 "http://www.w3.org/TR/2001/REC-SVG-20010904/DTD/svg10.dtd">
<svg version="1.0" xmlns="http://www.w3.org/2000/svg"
 width="1024.000000pt" height="1024.000000pt" viewBox="0 0 1024.000000 1024.000000"
 preserveAspectRatio="xMidYMid meet">

<g transform="translate(0.000000,1024.000000) scale(0.100000,-0.100000)"
fill="#000000" stroke="none">
<path d="M0 5120 l0 -5120 5120 0 5120 0 0 5120 0 5120 -5120 0 -5120 0 0
-5120z m5778 4095 c711 -47 1286 -144 1929 -326 216 -61 670 -212 734 -245 80
-40 155 -118 197 -203 l37 -76 0 -2210 0 -2210 -23 -128 c-63 -347 -172 -623
-352 -895 -117 -175 -196 -269 -384 -458 -271 -271 -581 -510 -1031 -796 -519
-330 -1356 -785 -1580 -860 -59 -19 -90 -23 -195 -23 -108 1 -136 5 -205 28
-148 49 -693 336 -1162 610 -1315 772 -1896 1354 -2118 2127 -50 172 -75 340
-85 565 -12 250 -12 4013 -1 4152 7 82 15 116 40 168 38 82 123 173 199 213
75 39 483 176 750 251 658 185 1407 299 2182 331 254 11 787 3 1068 -15z"/>
<path d="M4645 9029 c-929 -44 -1785 -203 -2573 -478 -95 -34 -185 -67 -200
-75 -35 -19 -95 -82 -118 -126 -18 -34 -19 -108 -19 -2190 0 -2003 1 -2163 18
-2270 49 -327 147 -583 327 -852 198 -298 467 -565 875 -868 418 -310 1143
-743 1780 -1061 203 -102 251 -122 312 -132 135 -20 204 5 648 236 750 391
1398 801 1825 1155 142 117 403 378 490 490 295 377 442 752 471 1202 7 110 9
842 7 2205 -3 1872 -4 2043 -20 2076 -20 45 -82 116 -118 134 -43 22 -597 201
-777 250 -637 176 -1227 267 -1963 305 -223 11 -714 11 -965 -1z m496 -471
c26 -32 24 -45 -3 -22 l-23 19 19 -23 c11 -12 21 -20 24 -17 7 7 42 -25 42
-38 0 -6 -10 -2 -22 9 l-23 19 19 -22 c10 -13 22 -20 26 -18 13 8 112 -113
104 -126 -4 -8 -3 -9 4 -5 31 19 196 -270 245 -429 86 -278 66 -574 -54 -805
-49 -93 -100 -163 -217 -290 -101 -110 -107 -124 -118 -261 -4 -48 -13 -93
-21 -105 -14 -19 -15 -19 -32 3 -12 14 -20 48 -25 100 -14 157 -18 166 -123
276 -239 253 -336 472 -336 757 0 331 122 616 381 886 59 61 109 112 110 113
2 0 12 -9 23 -21z m-2667 -2488 c87 -196 196 -462 196 -479 0 -38 25 17 103
222 49 127 108 279 130 337 l42 105 120 0 120 0 0 -30 c0 -25 -5 -30 -35 -36
-66 -14 -65 -2 -41 -551 8 -186 15 -204 75 -210 28 -3 31 -6 31 -36 l0 -34
-165 2 c-91 0 -169 5 -173 9 -5 5 -7 19 -5 32 2 18 11 25 38 29 20 4 41 10 48
14 13 8 14 181 3 470 l-6 159 -127 -329 c-70 -181 -132 -341 -137 -356 -9 -23
-17 -28 -43 -28 l-33 0 -59 148 c-33 81 -97 234 -141 340 l-82 193 -6 -93 c-4
-51 -10 -179 -13 -284 -7 -187 -7 -191 14 -212 13 -13 35 -22 52 -22 28 0 30
-3 30 -35 l0 -35 -150 0 -150 0 0 35 c0 29 4 35 21 35 28 0 56 16 69 40 12 23
36 285 46 507 8 181 1 209 -53 215 -28 3 -40 25 -29 54 5 12 26 14 117 12
l110 -3 83 -185z m4321 168 c132 -39 217 -108 268 -216 27 -57 32 -81 35 -163
10 -241 -121 -426 -343 -484 -46 -11 -117 -15 -312 -15 l-253 0 0 29 c0 28 3
30 45 36 24 4 50 14 57 23 10 11 14 88 16 306 4 301 0 382 -21 411 -7 9 -32
19 -55 22 -39 5 -42 8 -42 37 l0 31 278 -1 c211 -1 289 -5 327 -16z m997 -11
c60 -30 87 -59 106 -116 18 -51 14 -90 -13 -149 -19 -41 -36 -59 -76 -85 l-52
-32 34 -6 c69 -11 137 -64 159 -124 16 -43 14 -126 -5 -171 -31 -75 -111 -138
-213 -168 -41 -12 -108 -16 -285 -16 l-232 -2 -3 31 c-3 29 -1 31 38 37 23 4
47 12 54 20 26 25 30 666 5 716 -5 9 -28 21 -52 25 -37 8 -42 12 -45 39 l-3
30 263 -1 263 0 57 -28z m-4047 -284 c54 -29 99 -78 127 -138 18 -41 22 -67
22 -140 0 -78 -4 -97 -27 -142 -58 -112 -158 -173 -286 -173 -175 0 -279 100
-289 279 -10 167 62 278 213 328 59 19 190 12 240 -14z m449 11 c3 -9 6 -26 6
-39 l0 -24 69 35 c123 62 218 54 278 -24 43 -56 53 -115 53 -307 l0 -165 24 0
c42 0 56 -11 56 -41 l0 -29 -150 0 -150 0 0 29 c0 25 5 30 38 38 l37 9 3 154
c3 181 -1 214 -33 246 -33 33 -113 33 -170 1 -39 -22 -40 -24 -43 -82 -2 -33
-1 -116 3 -184 l7 -123 39 -16 c33 -13 39 -20 39 -44 l0 -28 -145 0 -145 0 0
29 c0 25 5 30 34 35 19 4 37 14 40 22 8 22 6 320 -2 369 -7 38 -9 40 -49 43
-44 3 -55 16 -46 51 4 16 14 21 37 22 17 0 56 8 86 19 70 23 77 23 84 4z m990
-14 c47 -22 56 -22 149 -4 28 6 28 6 25 -43 l-3 -48 -47 3 -47 4 6 -55 c8 -80
-3 -123 -45 -169 -49 -54 -110 -80 -202 -87 l-75 -6 -3 -37 c-4 -45 -6 -45
170 -54 176 -8 224 -37 235 -138 15 -129 -112 -254 -291 -287 -107 -19 -227
18 -271 85 -50 76 -38 144 35 209 l50 43 -25 24 c-38 36 -35 89 9 138 l35 38
-29 17 c-38 23 -80 109 -80 164 0 138 127 238 291 229 43 -2 84 -11 113 -26z
m731 3 c50 -27 96 -75 126 -133 27 -54 37 -174 20 -237 -26 -95 -119 -188
-214 -214 -23 -7 -73 -12 -112 -12 -120 0 -203 53 -254 163 -22 46 -26 69 -26
146 0 81 3 96 30 149 36 70 103 125 179 149 72 22 198 16 251 -11z m2013
-1515 c15 -15 15 -51 0 -66 -9 -9 -647 -12 -2809 -12 -2530 0 -2799 2 -2813
16 -19 18 -20 28 -6 55 11 19 53 19 2813 19 2167 0 2806 -3 2815 -12z m-2395
-768 c150 -47 249 -161 264 -304 l5 -53 -48 -6 c-27 -4 -79 -9 -115 -13 l-66
-6 -12 46 c-13 53 -62 113 -108 132 -87 37 -228 4 -288 -67 -118 -140 -123
-435 -9 -568 64 -75 168 -107 262 -81 57 15 126 79 148 137 l18 45 45 -6 c25
-3 74 -11 109 -17 l63 -11 -6 -32 c-13 -60 -52 -131 -104 -188 -177 -194 -511
-193 -701 1 -264 270 -190 814 132 966 40 19 98 39 128 44 74 13 208 4 283
-19z m-1808 -42 c13 -29 70 -165 128 -303 58 -137 116 -273 128 -302 l24 -52
145 345 c79 190 150 350 156 355 7 5 66 8 135 7 l124 -3 18 -550 c9 -302 15
-556 12 -563 -4 -10 -30 -12 -110 -9 -58 2 -107 6 -109 8 -3 2 -8 123 -11 269
-4 146 -10 300 -14 343 l-6 77 -119 -277 c-65 -153 -125 -288 -133 -300 -12
-21 -21 -23 -97 -23 l-83 0 -96 228 c-53 125 -111 262 -130 305 l-34 78 -7
-348 c-4 -191 -10 -351 -13 -356 -3 -4 -53 -6 -111 -4 l-107 4 3 449 c1 247 5
500 8 562 l6 112 135 0 134 0 24 -52z m2856 38 c127 -27 215 -93 263 -195 29
-63 30 -223 2 -296 -27 -68 -103 -146 -175 -179 -66 -29 -216 -50 -330 -44
l-71 3 0 -191 c0 -152 -3 -194 -14 -203 -9 -8 -50 -11 -117 -9 l-104 3 -3 550
c-1 303 0 556 3 563 7 18 457 17 546 -2z"/>
<path d="M5120 8435 c0 -43 3 -75 6 -72 7 7 6 138 -1 145 -3 3 -5 -30 -5 -73z"/>
<path d="M5203 8443 c4 -6 4 -13 0 -16 -5 -2 -2 -2 4 -1 7 2 19 -7 28 -19 8
-12 15 -17 15 -11 0 6 -12 21 -27 35 -14 13 -23 19 -20 12z"/>
<path d="M5149 8378 c11 -15 41 -15 41 -1 0 3 -6 3 -14 0 -7 -3 -20 0 -27 6
-11 10 -11 9 0 -5z"/>
<path d="M5121 8108 c-1 -145 3 -248 8 -248 5 0 18 -3 28 -6 15 -4 14 -3 -2 8
-17 11 -21 26 -24 87 -2 53 1 76 11 82 10 6 10 9 1 9 -7 0 -13 12 -13 28 0 21
2 24 10 12 6 -9 10 -10 10 -3 0 6 -4 15 -10 18 -12 8 -13 46 -1 43 5 -2 9 2 9
7 0 6 -3 9 -8 8 -4 -1 -7 31 -7 72 0 62 3 75 16 75 15 1 15 2 0 13 -9 7 -18
19 -22 27 -3 8 -6 -96 -6 -232z"/>
<path d="M5176 8327 c3 -10 9 -15 12 -12 3 3 0 11 -7 18 -10 9 -11 8 -5 -6z"/>
<path d="M5207 8269 c7 -7 15 -10 18 -7 3 3 -2 9 -12 12 -14 6 -15 5 -6 -5z"/>
<path d="M5165 8260 c-16 -7 -17 -9 -3 -9 9 -1 20 4 23 9 7 11 7 11 -20 0z"/>
<path d="M5200 8239 c0 -5 5 -7 10 -4 6 3 10 8 10 11 0 2 -4 4 -10 4 -5 0 -10
-5 -10 -11z"/>
<path d="M5240 8241 c0 -6 4 -13 10 -16 6 -3 7 1 4 9 -7 18 -14 21 -14 7z"/>
<path d="M5140 8211 c0 -5 7 -12 16 -15 14 -5 15 -4 4 9 -14 17 -20 19 -20 6z"/>
<path d="M5207 8193 c-10 -9 -9 -23 1 -23 5 0 9 7 9 15 0 17 -1 18 -10 8z"/>
<path d="M5256 8128 c3 -4 9 -8 15 -8 5 0 9 4 9 8 0 5 -7 9 -15 9 -8 0 -12 -4
-9 -9z"/>
<path d="M5218 8123 c7 -3 16 -2 19 1 4 3 -2 6 -13 5 -11 0 -14 -3 -6 -6z"/>
<path d="M5180 8116 c0 -2 7 -7 16 -10 8 -3 12 -2 9 4 -6 10 -25 14 -25 6z"/>
<path d="M5170 8080 c0 -5 5 -10 11 -10 5 0 7 5 4 10 -3 6 -8 10 -11 10 -2 0
-4 -4 -4 -10z"/>
<path d="M5144 7969 c-3 -6 -1 -16 4 -21 8 -8 11 -5 9 11 -1 24 -3 25 -13 10z"/>
<path d="M5165 7931 c-3 -6 3 -9 14 -8 11 0 17 5 15 9 -7 11 -22 10 -29 -1z"/>
<path d="M5219 7858 c-6 -13 -8 -20 -4 -15 5 4 16 0 26 -9 13 -12 19 -12 25
-3 4 7 3 10 -4 5 -6 -3 -13 -2 -16 3 -4 5 -2 12 4 16 11 7 4 25 -10 25 -5 0
-15 -10 -21 -22z m31 8 c0 -3 -4 -8 -10 -11 -5 -3 -10 -1 -10 4 0 6 5 11 10
11 6 0 10 -2 10 -4z"/>
<path d="M5182 7823 c-2 -20 -5 -39 -7 -43 -2 -4 1 -7 8 -7 7 0 12 15 11 39
-2 50 -9 57 -12 11z"/>
<path d="M5118 7368 l-3 -483 37 -77 37 -78 48 51 c26 29 47 56 46 60 -2 5 3
8 10 6 6 -1 11 4 10 10 -2 7 3 12 10 10 6 -1 11 4 10 10 -2 7 1 12 6 10 5 -1
23 16 40 37 22 27 28 42 21 51 -5 6 -8 15 -5 19 3 3 -1 1 -7 -4 -10 -9 -10
-12 0 -19 10 -6 8 -13 -7 -32 -11 -13 -20 -19 -21 -14 0 6 6 17 13 24 6 8 7
11 2 8 -6 -3 -17 -1 -25 4 -13 7 -13 10 -1 18 9 6 10 11 2 15 -6 4 -11 1 -11
-6 0 -10 -3 -9 -11 2 -9 13 -10 13 -6 -2 3 -9 0 -22 -8 -28 -12 -10 -13 -7 -5
19 5 17 7 31 4 31 -3 0 0 10 7 22 10 18 9 20 -7 14 -10 -4 -15 -4 -11 0 4 4 2
13 -4 20 -8 9 -5 16 11 24 20 11 21 10 10 -9 -8 -16 -8 -21 1 -21 6 0 13 9 16
20 3 11 12 20 21 20 13 0 13 -2 -1 -18 -18 -20 -23 -37 -8 -27 5 3 13 1 16 -5
4 -6 3 -10 -2 -9 -20 3 -29 -2 -29 -20 0 -11 6 -17 13 -14 6 3 9 11 6 19 -3 8
-2 14 3 13 20 -3 24 2 14 20 -7 13 -7 22 0 26 15 9 12 25 -4 25 -21 0 -8 38
18 52 11 7 28 11 36 10 10 -1 11 1 2 4 -6 3 -9 11 -5 17 5 8 2 8 -9 0 -8 -7
-18 -11 -21 -8 -4 3 -5 2 -2 -2 5 -7 -25 -32 -39 -33 -5 0 -2 8 5 18 13 15 12
16 -4 3 -10 -8 -16 -20 -13 -26 2 -7 1 -17 -4 -24 -5 -9 -9 -4 -12 13 -3 14
-1 26 3 26 5 0 9 6 9 14 0 8 6 17 13 20 6 3 3 4 -8 3 -11 -2 -19 -9 -17 -15 1
-7 -3 -12 -9 -12 -6 0 -9 9 -6 20 3 10 2 19 -2 18 -18 -2 -31 3 -31 13 0 5 5
7 10 4 6 -3 10 -1 10 4 0 15 -11 13 -34 -4 -11 -8 -27 -15 -35 -15 -9 1 -4 7
12 16 27 15 28 17 12 34 -10 11 -14 24 -9 31 4 8 3 10 -4 5 -7 -4 -12 -1 -12
8 0 21 23 25 38 7 11 -14 11 -13 2 7 -6 12 -8 22 -4 22 4 0 0 8 -9 18 -10 10
-14 22 -10 27 5 4 2 5 -6 0 -8 -4 -17 -2 -22 6 -7 11 -10 12 -21 1 -8 -9 -9
-12 -1 -10 6 2 11 -1 12 -7 1 -5 -3 -11 -9 -11 -5 -1 -14 -2 -20 -3 -19 -2
-10 -17 11 -18 11 -1 22 4 25 12 3 8 12 11 19 9 8 -3 11 -12 8 -20 -3 -8 -8
-12 -11 -10 -3 3 -11 1 -18 -5 -9 -7 -19 -7 -33 0 -17 9 -20 7 -24 -12 -4 -15
-5 -12 -4 8 1 17 6 33 12 37 5 4 10 11 11 15 2 24 18 41 35 40 10 -1 19 -5 19
-9 0 -4 7 -5 15 -2 8 4 15 1 15 -5 0 -6 3 -11 8 -11 4 0 7 11 7 24 0 16 -3 22
-9 15 -16 -15 -29 -10 -22 8 6 15 4 15 -14 -2 -20 -18 -25 -13 -21 20 1 6 -5
2 -12 -7 -23 -30 -42 -5 -42 57 0 46 2 54 17 49 9 -2 20 1 24 7 4 8 3 9 -4 5
-7 -4 -12 -2 -12 4 0 6 -4 9 -9 5 -5 -3 -13 0 -17 6 -4 7 -3 9 3 6 6 -4 14 0
17 9 8 22 8 24 -6 22 -9 -2 -14 18 -16 69 -3 63 0 76 18 95 l21 23 -21 9 c-11
5 -19 15 -16 23 3 7 1 13 -4 13 -6 0 -11 -186 -12 -482z m32 428 c0 -3 -4 -8
-10 -11 -5 -3 -10 -1 -10 4 0 6 5 11 10 11 6 0 10 -2 10 -4z m-3 -391 c-15
-16 -22 -11 -13 10 3 9 10 13 16 10 6 -4 5 -11 -3 -20z m50 -101 c-3 -4 3 -18
14 -32 l20 -26 -20 -8 c-12 -4 -21 -12 -21 -17 0 -5 -9 -7 -20 -4 -11 3 -20 9
-20 13 0 15 30 32 46 26 10 -4 14 -1 12 6 -3 7 -10 13 -16 13 -7 0 -12 3 -12
8 0 4 0 12 0 17 0 6 5 10 12 10 6 0 8 -3 5 -6z m-37 -41 c0 -7 -4 -13 -9 -13
-5 0 -12 -8 -14 -17 -2 -10 -4 -4 -3 13 1 29 26 46 26 17z m-6 -76 c-10 -12
-19 -23 -20 -25 -1 -2 -1 8 -1 21 0 16 6 23 19 24 20 2 20 1 2 -20z m107 -5
c0 -14 2 -13 9 3 8 19 9 19 9 -2 1 -16 -5 -23 -18 -23 -13 0 -18 7 -18 25 0
27 17 24 18 -3z m-60 -10 c-9 -3 -8 -8 1 -20 12 -15 11 -15 -4 -4 -10 8 -14
20 -11 29 5 12 3 14 -7 8 -9 -5 -11 -4 -6 4 6 9 11 9 23 -1 10 -8 11 -14 4
-16z m50 -30 c-7 -2 -18 1 -23 6 -8 8 -4 9 13 5 13 -4 18 -8 10 -11z m-101 -2
c0 -5 -2 -10 -4 -10 -3 0 -8 5 -11 10 -3 6 -1 10 4 10 6 0 11 -4 11 -10z m130
-5 c-10 -12 -10 -15 0 -15 8 0 11 -2 8 -5 -3 -3 -12 -3 -21 1 -13 5 -14 9 -4
20 16 18 33 18 17 -1z m-130 -56 c0 -6 -4 -7 -10 -4 -5 3 -10 11 -10 16 0 6 5
7 10 4 6 -3 10 -11 10 -16z m117 6 c0 -8 -4 -12 -9 -9 -5 3 -6 10 -3 15 9 13
12 11 12 -6z m-120 -40 c0 -8 -4 -12 -9 -9 -5 3 -6 10 -3 15 9 13 12 11 12 -6z
m109 6 c8 7 14 6 20 -2 4 -7 3 -9 -4 -5 -5 3 -12 0 -15 -6 -3 -10 -9 -8 -21 4
-9 10 -11 14 -4 8 7 -6 16 -6 24 1z m-76 -56 c-7 -9 -15 -13 -19 -10 -3 3 1
10 9 15 21 14 24 12 10 -5z m75 -33 c-11 -9 -14 -10 -7 -2 18 21 15 34 -5 19
-16 -13 -17 -12 -4 4 10 12 17 15 25 7 7 -7 4 -15 -9 -28z m-64 5 c-10 -9 -11
-8 -5 6 3 10 9 15 12 12 3 -3 0 -11 -7 -18z m9 -45 c0 -8 -1 -13 -3 -11 -1 2
-9 12 -16 22 -12 15 -12 17 3 11 9 -3 16 -13 16 -22z m91 11 c12 -14 12 -16 0
-8 -11 6 -13 4 -8 -9 4 -9 3 -15 -2 -11 -6 3 -9 14 -8 25 2 24 1 24 18 3z
m-147 -38 c-9 -22 14 -55 33 -48 11 4 14 3 9 -5 -12 -20 -32 -14 -44 13 -14
31 -16 68 -2 60 5 -3 7 -12 4 -20z m46 -17 c0 -5 -8 -8 -17 -8 -15 0 -16 2 -3
10 11 7 11 10 2 10 -7 0 -10 5 -6 11 6 11 23 -6 24 -23z m70 28 c0 -2 -7 -7
-16 -10 -8 -3 -12 -2 -9 4 6 10 25 14 25 6z m-4 -42 c-4 -9 -9 -15 -11 -12 -3
3 -3 13 1 22 4 9 9 15 11 12 3 -3 3 -13 -1 -22z m-46 -49 c11 -13 10 -14 -5
-9 -9 4 -20 2 -25 -5 -5 -9 -9 -8 -13 4 -4 9 -3 13 3 10 6 -3 10 -1 10 4 0 16
16 13 30 -4z m-12 -60 c-3 -3 -9 2 -12 12 -6 14 -5 15 5 6 7 -7 10 -15 7 -18z"/>
<path d="M5175 7240 c-3 -6 1 -7 9 -4 18 7 21 14 7 14 -6 0 -13 -4 -16 -10z"/>
<path d="M5405 7841 c-3 -5 -2 -12 3 -15 5 -3 9 1 9 9 0 17 -3 19 -12 6z"/>
<path d="M5552 7830 c0 -14 2 -19 5 -12 2 6 2 18 0 25 -3 6 -5 1 -5 -13z"/>
<path d="M5340 7830 c0 -5 5 -10 11 -10 5 0 7 5 4 10 -3 6 -8 10 -11 10 -2 0
-4 -4 -4 -10z"/>
<path d="M5208 7823 c7 -3 16 -2 19 1 4 3 -2 6 -13 5 -11 0 -14 -3 -6 -6z"/>
<path d="M5260 7800 c-9 -6 -10 -10 -3 -10 6 0 15 5 18 10 8 12 4 12 -15 0z"/>
<path d="M5345 7760 c3 -5 8 -10 11 -10 2 0 4 5 4 10 0 6 -5 10 -11 10 -5 0
-7 -4 -4 -10z"/>
<path d="M5188 7753 c7 -3 16 -2 19 1 4 3 -2 6 -13 5 -11 0 -14 -3 -6 -6z"/>
<path d="M5216 7744 c-11 -7 -24 -11 -30 -8 -6 3 0 -4 14 -15 14 -11 29 -21
33 -21 5 0 6 -4 2 -9 -3 -5 -1 -12 4 -15 5 -4 8 2 7 11 -2 10 0 20 4 23 3 3 1
15 -5 26 -9 19 -13 20 -29 8z m21 -30 c-9 -9 -28 6 -21 18 4 6 10 6 17 -1 6
-6 8 -13 4 -17z"/>
<path d="M5310 7740 c0 -5 5 -10 11 -10 5 0 7 5 4 10 -3 6 -8 10 -11 10 -2 0
-4 -4 -4 -10z"/>
<path d="M5150 7720 c-12 -7 -10 -9 7 -7 12 0 19 5 17 9 -6 10 -6 10 -24 -2z"/>
<path d="M5140 7687 c0 -8 10 -17 22 -21 22 -5 22 -6 3 -20 -20 -15 -19 -15 3
-9 33 8 33 15 1 41 -21 17 -29 20 -29 9z"/>
<path d="M5260 7676 c0 -8 5 -18 12 -22 7 -5 8 -3 3 6 -4 7 -2 16 6 21 11 7
10 9 -3 9 -10 0 -18 -6 -18 -14z"/>
<path d="M5199 7633 c-1 -5 -1 -11 0 -15 0 -5 -5 -8 -13 -8 -18 0 -30 -17 -18
-24 5 -3 21 8 36 24 19 22 22 30 11 30 -8 0 -16 -3 -16 -7z"/>
<path d="M5363 7598 c-15 -20 -25 -38 -20 -38 3 0 12 11 21 25 17 26 16 35 -1
13z"/>
<path d="M5316 7588 c3 -5 10 -6 15 -3 13 9 11 12 -6 12 -8 0 -12 -4 -9 -9z"/>
<path d="M5205 7580 c-13 -6 -15 -9 -5 -9 8 0 22 4 30 9 18 12 2 12 -25 0z"/>
<path d="M5262 7574 c-7 -8 -8 -14 -3 -14 10 0 25 19 20 25 -2 1 -10 -3 -17
-11z"/>
<path d="M5297 7567 c-3 -8 1 -14 8 -14 7 0 11 6 8 14 -3 7 -6 13 -8 13 -2 0
-5 -6 -8 -13z"/>
<path d="M5170 7544 c-14 -8 -18 -14 -10 -14 8 1 24 7 34 15 24 19 10 18 -24
-1z"/>
<path d="M5563 7545 c0 -7 6 -11 14 -8 7 3 13 6 13 8 0 2 -6 5 -13 8 -8 3 -14
-1 -14 -8z"/>
<path d="M5205 7531 c-3 -5 -1 -12 5 -16 5 -3 10 1 10 9 0 18 -6 21 -15 7z"/>
<path d="M5237 7533 c-4 -3 -7 -11 -7 -17 0 -6 5 -5 12 2 6 6 9 14 7 17 -3 3
-9 2 -12 -2z"/>
<path d="M5495 7520 c-3 -5 -1 -10 4 -10 6 0 11 5 11 10 0 6 -2 10 -4 10 -3 0
-8 -4 -11 -10z"/>
<path d="M5164 7512 c-15 -10 -24 -51 -13 -58 5 -3 9 2 9 11 0 10 5 13 13 9 9
-6 9 -5 0 7 -10 12 -10 18 -1 27 13 13 9 16 -8 4z"/>
<path d="M5195 7470 c3 -5 11 -10 16 -10 6 0 7 5 4 10 -3 6 -11 10 -16 10 -6
0 -7 -4 -4 -10z"/>
<path d="M5581 7444 c0 -11 3 -14 6 -6 3 7 2 16 -1 19 -3 4 -6 -2 -5 -13z"/>
<path d="M5427 7409 c7 -7 15 -10 18 -7 3 3 -2 9 -12 12 -14 6 -15 5 -6 -5z"/>
<path d="M5571 7394 c0 -11 3 -14 6 -6 3 7 2 16 -1 19 -3 4 -6 -2 -5 -13z"/>
<path d="M5266 7383 c-6 -14 -5 -15 5 -6 7 7 10 15 7 18 -3 3 -9 -2 -12 -12z"/>
<path d="M5298 7356 c-21 -12 -35 -25 -32 -29 11 -11 -6 -58 -19 -52 -7 4 -1
-3 12 -14 28 -25 40 -26 47 -6 4 8 10 12 15 9 5 -3 9 -1 9 5 0 5 -9 9 -19 8
-13 -1 -17 -6 -13 -17 5 -13 3 -13 -11 -2 -20 17 -12 43 11 36 15 -5 15 -4 0
6 -19 11 -26 46 -8 35 6 -4 8 -10 6 -14 -9 -14 31 -5 55 12 13 9 17 16 9 14
-8 -1 -20 -9 -27 -17 -9 -11 -12 -12 -13 -2 0 7 -4 10 -10 7 -19 -12 -10 7 13
26 30 25 20 23 -25 -5z"/>
<path d="M5448 7353 c7 -3 16 -2 19 1 4 3 -2 6 -13 5 -11 0 -14 -3 -6 -6z"/>
<path d="M5556 7337 c3 -10 9 -15 12 -12 3 3 0 11 -7 18 -10 9 -11 8 -5 -6z"/>
<path d="M5415 7310 c-3 -5 -1 -10 4 -10 6 0 11 5 11 10 0 6 -2 10 -4 10 -3 0
-8 -4 -11 -10z"/>
<path d="M5510 7279 c0 -5 5 -7 10 -4 6 3 10 8 10 11 0 2 -4 4 -10 4 -5 0 -10
-5 -10 -11z"/>
<path d="M5420 7260 c0 -5 5 -10 11 -10 5 0 7 5 4 10 -3 6 -8 10 -11 10 -2 0
-4 -4 -4 -10z"/>
<path d="M5532 7254 c1 -10 -2 -30 -5 -44 -4 -15 -1 -12 9 9 10 23 12 37 5 44
-7 7 -10 4 -9 -9z"/>
<path d="M5336 7252 c-3 -5 1 -9 9 -9 8 0 12 4 9 9 -3 4 -7 8 -9 8 -2 0 -6 -4
-9 -8z"/>
<path d="M5313 7225 c0 -18 23 -20 33 -2 4 6 4 9 -1 5 -4 -4 -13 -3 -20 2 -8
7 -12 5 -12 -5z"/>
<path d="M5376 7208 c3 -5 10 -6 15 -3 13 9 11 12 -6 12 -8 0 -12 -4 -9 -9z"/>
<path d="M5429 7197 c6 -8 7 -18 3 -22 -4 -5 -2 -5 5 -1 14 8 6 36 -9 36 -7 0
-6 -5 1 -13z"/>
<path d="M5496 7172 c-2 -4 -1 -14 4 -22 7 -11 9 -9 7 8 -1 24 -3 26 -11 14z"/>
<path d="M5480 7109 c-7 -11 -10 -23 -7 -25 2 -2 9 7 15 21 14 30 7 33 -8 4z"/>
<path d="M5391 7074 c-15 -33 -8 -41 21 -26 l23 12 -23 -6 c-22 -5 -23 -4 -12
16 6 12 10 24 7 26 -2 2 -9 -8 -16 -22z"/>
<path d="M5420 7084 c0 -4 7 -12 16 -19 15 -11 15 -14 -1 -41 -15 -25 -15 -27
0 -9 30 37 37 55 20 55 -8 0 -15 5 -15 10 0 6 -4 10 -10 10 -5 0 -10 -3 -10
-6z"/>
<path d="M5405 7019 c-4 -6 -5 -12 -2 -15 2 -3 7 2 10 11 7 17 1 20 -8 4z"/>
<path d="M5072 6840 c0 -14 2 -19 5 -12 2 6 2 18 0 25 -3 6 -5 1 -5 -13z"/>
<path d="M5061 6794 c0 -11 3 -14 6 -6 3 7 2 16 -1 19 -3 4 -6 -2 -5 -13z"/>
<path d="M6450 5851 c0 -357 3 -377 59 -400 46 -20 194 -10 252 16 97 43 159
137 179 271 27 170 -40 325 -171 397 -51 28 -62 30 -186 33 l-133 4 0 -321z"/>
<path d="M7470 6021 l0 -151 78 0 c137 0 208 58 199 163 -8 94 -58 130 -189
135 l-88 4 0 -151z"/>
<path d="M7470 5641 c0 -190 2 -194 117 -199 66 -3 85 0 123 20 81 41 116 163
72 248 -31 59 -87 80 -209 80 l-103 0 0 -149z"/>
<path d="M3524 5890 c-31 -12 -72 -65 -84 -108 -23 -86 -5 -213 42 -282 32
-47 68 -71 116 -77 55 -7 97 11 124 56 20 32 23 49 23 147 0 103 -2 114 -30
169 -44 86 -120 124 -191 95z"/>
<path d="M4962 5884 c-69 -48 -69 -191 1 -250 31 -26 92 -33 128 -14 69 37 61
212 -12 264 -30 20 -88 21 -117 0z"/>
<path d="M4901 5300 c-37 -51 -39 -85 -8 -130 36 -55 81 -75 162 -75 82 1 127
21 162 75 26 38 29 70 9 109 -22 41 -60 53 -183 59 l-111 4 -31 -42z"/>
<path d="M5680 5882 c-112 -56 -114 -309 -3 -414 75 -71 179 -62 219 19 22 46
31 190 15 249 -17 62 -61 122 -107 144 -50 25 -79 25 -124 2z"/>
<path d="M6268 3301 l3 -160 122 6 c67 3 137 12 154 19 47 19 73 67 73 137 0
124 -49 156 -235 157 l-120 0 3 -159z"/>
</g>
</svg>
