<svg width="128" height="128" viewBox="0 0 128 128" fill="none" xmlns="http://www.w3.org/2000/svg">
  <!-- Background Circle -->
  <circle cx="64" cy="64" r="64" fill="url(#bgGradient)"/>
  
  <!-- Plant/Leaf Icon -->
  <g transform="translate(32, 24)">
    <!-- Main stem -->
    <rect x="30" y="45" width="4" height="35" fill="#22c55e" rx="2"/>
    
    <!-- Leaves -->
    <ellipse cx="20" cy="35" rx="12" ry="8" fill="#10b981" transform="rotate(-15 20 35)"/>
    <ellipse cx="44" cy="35" rx="12" ry="8" fill="#10b981" transform="rotate(15 44 35)"/>
    <ellipse cx="15" cy="50" rx="10" ry="6" fill="#059669" transform="rotate(-25 15 50)"/>
    <ellipse cx="49" cy="50" rx="10" ry="6" fill="#059669" transform="rotate(25 49 50)"/>
    
    <!-- Small growth indicators -->
    <circle cx="32" cy="30" r="2" fill="#34d399" opacity="0.8"/>
    <circle cx="28" cy="40" r="1.5" fill="#34d399" opacity="0.6"/>
    <circle cx="36" cy="40" r="1.5" fill="#34d399" opacity="0.6"/>
    
    <!-- Water droplets -->
    <ellipse cx="25" cy="42" rx="1.5" ry="2" fill="#06b6d4" opacity="0.7"/>
    <ellipse cx="39" cy="42" rx="1.5" ry="2" fill="#06b6d4" opacity="0.7"/>
    
    <!-- Growth container/pot -->
    <rect x="18" y="75" width="28" height="8" fill="#6b7280" rx="4"/>
    <rect x="20" y="77" width="24" height="4" fill="#9ca3af" rx="2"/>
  </g>
  
  <!-- Tech elements (circuit-like) -->
  <g opacity="0.3">
    <!-- Corner tech elements -->
    <rect x="8" y="8" width="12" height="2" fill="#3b82f6" rx="1"/>
    <rect x="8" y="8" width="2" height="12" fill="#3b82f6" rx="1"/>
    
    <rect x="108" y="8" width="12" height="2" fill="#3b82f6" rx="1"/>
    <rect x="118" y="8" width="2" height="12" fill="#3b82f6" rx="1"/>
    
    <rect x="8" y="108" width="12" height="2" fill="#3b82f6" rx="1"/>
    <rect x="8" y="108" width="2" height="12" fill="#3b82f6" rx="1"/>
    
    <rect x="108" y="108" width="12" height="2" fill="#3b82f6" rx="1"/>
    <rect x="118" y="108" width="2" height="12" fill="#3b82f6" rx="1"/>
    
    <!-- Connection dots -->
    <circle cx="14" cy="14" r="1.5" fill="#3b82f6"/>
    <circle cx="114" cy="14" r="1.5" fill="#3b82f6"/>
    <circle cx="14" cy="114" r="1.5" fill="#3b82f6"/>
    <circle cx="114" cy="114" r="1.5" fill="#3b82f6"/>
  </g>
  
  <!-- Central monitoring display -->
  <rect x="48" y="85" width="32" height="18" fill="#1f2937" rx="3" opacity="0.8"/>
  <rect x="50" y="87" width="28" height="14" fill="#111827" rx="2"/>
  
  <!-- Monitor content -->
  <line x1="52" y1="91" x2="76" y2="91" stroke="#22c55e" stroke-width="1.5" opacity="0.8"/>
  <line x1="52" y1="94" x2="70" y2="94" stroke="#06b6d4" stroke-width="1.5" opacity="0.8"/>
  <line x1="52" y1="97" x2="74" y2="97" stroke="#f59e0b" stroke-width="1.5" opacity="0.8"/>
  
  <!-- Status indicator -->
  <circle cx="72" cy="89" r="1.5" fill="#22c55e"/>
  
  <!-- Gradient definitions -->
  <defs>
    <linearGradient id="bgGradient" x1="0%" y1="0%" x2="100%" y2="100%">
      <stop offset="0%" style="stop-color:#f8fafc;stop-opacity:1" />
      <stop offset="100%" style="stop-color:#e2e8f0;stop-opacity:1" />
    </linearGradient>
  </defs>
</svg> 